<?xml version="1.0" standalone="no"?>
<!DOCTYPE svg PUBLIC "-//W3C//DTD SVG 20010904//EN"
 "http://www.w3.org/TR/2001/REC-SVG-20010904/DTD/svg10.dtd">
<svg version="1.0" xmlns="http://www.w3.org/2000/svg"
 width="244.000000pt" height="244.000000pt" viewBox="0 0 244.000000 244.000000"
 preserveAspectRatio="xMidYMid meet">
<metadata>
Created by potrace 1.14, written by Peter Selinger 2001-2017
</metadata>
<g transform="translate(0.000000,244.000000) scale(0.100000,-0.100000)"
fill="#000000" stroke="none">
<path d="M1000 1934 c-243 -132 -500 -281 -520 -300 -13 -12 -15 -72 -16 -402
-1 -213 1 -405 3 -428 5 -38 9 -43 86 -89 242 -146 625 -366 644 -371 16 -4
58 13 138 55 161 85 587 330 605 347 13 13 15 72 16 402 1 213 -1 405 -3 428
-5 40 -6 41 -136 119 -73 44 -141 85 -152 91 -11 5 -72 41 -135 79 -63 37
-128 76 -145 85 -136 76 -164 90 -176 90 -8 0 -102 -48 -209 -106z"/>
</g>
</svg>
